Coordinates
version=1
nRows=16
nColumns=28
inDegrees=yes

Units are S.I. units (second, meters, Newtons, ...)
Angles are in degrees.

endheader
time	pelvis_tilt	pelvis_list	pelvis_rotation	pelvis_tx	pelvis_ty	pelvis_tz	hip_flexion_r	hip_adduction_r	hip_rotation_r	knee_angle_r	ankle_angle_r	subtalar_angle_r	mtp_angle_r	hip_flexion_l	hip_adduction_l	hip_rotation_l	knee_angle_l	socket_flexion	socket_adduction	socket_rotation	socket_tx	socket_ty	socket_tz	foot_flex	lumbar_extension	lumbar_bending	lumbar_rotation
      0.54166667	      2.27516180	     -4.43489259	     10.62170834	      0.01815433	      0.96714097	      0.24764441	     22.27987170	      2.70624439	     -7.21182410	    -10.16247500	      5.18765200	    -18.55121366	     -3.76015956	    -20.48208895	     -6.46520711	     -7.66727366	    -13.60773930	     -1.52723083	     -6.06187613	     20.00280981	      0.00000000	     -0.00013264	      0.00000000	      9.71732593	     -8.77023447	      4.65849551	    -16.54188705
      0.54583333	      2.37967318	     -4.52459025	     10.64646835	      0.02449117	      0.96582906	      0.24770670	     22.60670042	      2.84270148	     -7.23596418	    -11.29371050	      4.73520410	    -18.63993952	     -3.75267937	    -20.90801132	     -6.63059328	     -7.72123786	    -13.74018809	     -1.50331729	     -6.10337921	     19.95066930	      0.00000000	      0.00003602	      0.00000000	      9.77983328	     -8.90807197	      4.87689506	    -16.56919738
      0.55000000	      2.43100801	     -4.61182268	     10.63895553	      0.03090991	      0.96445196	      0.24784437	     23.01066684	      2.97111346	     -7.26588507	    -12.49100841	      4.25300846	    -18.72308881	     -3.70414413	    -21.28396866	     -6.77168541	     -7.82113543	    -13.83556762	     -1.42313515	     -6.13841997	     19.93171291	      0.00000000	      0.00019714	      0.00000000	      9.82197609	     -8.96610304	      5.06771490	    -16.58398188
      0.55416667	      2.44032980	     -4.69788962	     10.57873579	      0.03733665	      0.96301549	      0.24808480	     23.48465468	      3.10716352	     -7.26641716	    -13.74653384	      3.74263296	    -18.79426060	     -3.60322794	    -21.60713088	     -6.88055123	     -7.94969812	    -13.92924373	     -1.29330945	     -6.17114354	     19.90771044	      0.00000000	      0.00033121	      0.00000000	      9.84707174	     -8.97604966	      5.24560850	    -16.57736876
      0.55833333	      2.02764919	     -4.67333640	     10.24677411	      0.04379912	      0.96096438	      0.24879124	     24.50777189	      3.16479994	     -6.86525483	    -15.20676601	      3.10255786	    -19.12271873	     -2.33609734	    -21.51591368	     -6.70757298	     -8.26446692	    -13.99354392	     -1.06142941	     -6.22122035	     19.94563909	      0.00000000	      0.00045528	      0.00000000	      9.85439140	     -8.48320208	      5.15827652	    -16.09388546
      0.56250000	      2.10341218	     -4.79676517	     10.21094653	      0.05026282	      0.95969933	      0.24902877	     24.84584662	      3.35533504	     -6.84101471	    -16.36989884	      2.59968339	    -19.12496371	     -2.27336286	    -21.83815411	     -6.86688066	     -8.29950540	    -14.19768386	     -0.93429644	     -6.25901144	     19.82157193	      0.00000000	      0.00059280	      0.00000000	      9.84195059	     -8.57206677	      5.40054435	    -16.16291752
      0.56666667	      2.13245448	     -4.89733272	     10.14296359	      0.05673030	      0.95839622	      0.24937011	     25.24029125	      3.53197448	     -6.77213960	    -17.55777163	      2.09291229	    -19.14067924	     -2.17773106	    -22.09727031	     -6.98047331	     -8.38095392	    -14.38846558	     -0.74578599	     -6.30013738	     19.73501303	      0.00000000	      0.00070788	      0.00000000	      9.79132785	     -8.60551093	      5.58969265	    -16.18869246
      0.57083333	      1.65185684	     -4.86255231	      9.73068727	      0.06321821	      0.95637390	      0.25034559	     26.30466097	      3.64555738	     -6.20455810	    -18.98621823	      1.27655240	    -19.74158613	     -0.77392697	    -21.81445688	     -6.76590272	     -8.72500546	    -14.68709713	     -0.52474681	     -6.37807130	     19.71719180	      0.00000000	      0.00086162	      0.00000000	      9.72577881	     -8.05185732	      5.45619327	    -15.68114665
      0.57500000	      1.73958115	     -4.99219571	      9.71226889	      0.06975863	      0.95531604	      0.25069031	     26.53517514	      3.88273397	     -6.06061536	    -20.01720647	      0.88364918	    -19.69534902	     -0.73151912	    -22.06033969	     -6.93705191	     -8.68209373	    -14.95688859	     -0.29690501	     -6.40916855	     19.64638741	      0.00000000	      0.00102361	      0.00000000	      9.63627583	     -8.11058444	      5.68812606	    -15.73892958
      0.57916667	      1.77392836	     -5.12950493	      9.59017243	      0.07631720	      0.95415283	      0.25113407	     26.89189356	      4.12424278	     -5.96066297	    -21.17081311	      0.42841357	    -19.69590723	     -0.66271884	    -22.24116644	     -7.05073935	     -8.81432633	    -15.23351768	     -0.01901427	     -6.45306765	     19.44830126	      0.00000000	      0.00108263	      0.00000000	      9.48422286	     -8.19789998	      5.90852543	    -15.76848842
      0.58333333	      1.33612401	     -5.10216917	      9.08363442	      0.08290370	      0.95233591	      0.25239482	     27.84191796	      4.34816277	     -5.26724439	    -22.51734583	     -0.24182196	    -20.24529565	      0.04063924	    -21.94219554	     -6.82278802	     -9.27081266	    -15.58161451	      0.30455884	     -6.51815911	     19.43074081	      0.00000000	      0.00126482	      0.00000000	      9.33139353	     -7.69208137	      5.77407850	    -15.27750399
      0.58750000	      1.40614156	     -5.26778905	      9.03222632	      0.08948575	      0.95141263	      0.25289177	     28.04900479	      4.65002094	     -5.10577578	    -23.49297938	     -0.54911779	    -20.24041921	      0.10149138	    -22.05526508	     -7.00912052	     -9.26107560	    -15.95710601	      0.63772590	     -6.54614545	     19.26635187	      0.00000000	      0.00132850	      0.00000000	      9.11876872	     -7.79436685	      6.03625499	    -15.30006420
      0.59166667	      1.09082255	     -5.37169902	      8.67386314	      0.09602812	      0.94994111	      0.25402640	     28.73558230	      5.01793011	     -4.48520584	    -24.57882284	     -1.24540378	    -21.07938852	      0.81397087	    -21.67432152	     -7.01170103	     -9.62307040	    -16.71110595	      0.78885373	     -6.67318972	     19.17476479	      0.00000000	      0.00146229	      0.00000000	      8.87531550	     -7.43238955	      6.09314663	    -14.83893739
      0.59583333	      1.18251698	     -5.52965480	      8.62072760	      0.10266585	      0.94923139	      0.25459605	     28.85622866	      5.32426525	     -4.32515447	    -25.48209766	     -1.46370453	    -21.04369112	      0.84331401	    -21.74605649	     -7.19949781	     -9.62220190	    -17.11611357	      1.21706698	     -6.66661231	     19.02761008	      0.00000000	      0.00159795	      0.00000000	      8.60095716	     -7.52185467	      6.32162213	    -14.88809448
      0.60000000	      1.23929013	     -5.70531272	      8.48163810	      0.10935517	      0.94849313	      0.25527902	     29.01982352	      5.66906021	     -4.16213626	    -26.40669696	     -1.64713149	    -21.05966673	      0.88127892	    -21.75974895	     -7.35812434	     -9.72131660	    -17.56082565	      1.65408403	     -6.66789744	     18.77160523	      0.00000000	      0.00167141	      0.00000000	      8.26607750	     -7.60105073	      6.56197265	    -14.90486962
      0.60416667	      0.89845757	     -5.83081554	      8.09543247	      0.11600283	      0.94721605	      0.25660326	     29.61945973	      6.12351323	     -3.47476124	    -27.35728949	     -1.98831941	    -21.76325767	      1.06924124	    -21.21515673	     -7.40011004	    -10.14000049	    -18.49257820	      1.85461931	     -6.78812491	     18.64944658	      0.00000000	      0.00185575	      0.00000000	      7.91340762	     -7.16899191	      6.62194877	    -14.37783822
